<svg xmlns="http://www.w3.org/2000/svg" viewBox="0 0 200 200" width="400" height="400"><path d="M100 18 C128 14 150 30 160 52 C178 58 190 80 182 102 C194 124 180 152 154 158 C142 182 112 190 92 176 C68 188 38 176 34 150 C12 140 6 112 22 94 C12 70 26 42 52 40 C64 22 84 16 100 18 Z" fill="#1E6FE0" stroke="#1756AE" stroke-width="4" stroke-linejoin="round"/><ellipse cx="78" cy="62" rx="22" ry="11" fill="#FFFFFF" opacity="0.35" transform="rotate(-25 78 62)"/><circle cx="176" cy="40" r="9" fill="#1E6FE0" stroke="#1756AE" stroke-width="3"/><circle cx="24" cy="172" r="7" fill="#1E6FE0" stroke="#1756AE" stroke-width="3"/><circle cx="186" cy="170" r="6" fill="#1E6FE0" stroke="#1756AE" stroke-width="3"/></svg>
